<?xml version="1.0" encoding="utf-8"?>
<!-- Generator: Adobe Illustrator 18.1.1, SVG Export Plug-In . SVG Version: 6.00 Build 0)  -->
<svg version="1.1" id="Calque_1" xmlns="http://www.w3.org/2000/svg" xmlns:xlink="http://www.w3.org/1999/xlink" x="0px" y="0px"
	 viewBox="0 0 387.8 61.1" enable-background="new 0 0 387.8 61.1" xml:space="preserve">
<g>
	<path d="M42.3,37.1c0,13.1-7.9,21-21.1,21C8,58.1,0,50.2,0,37.1V25.5h5.8v11.6c0,9.8,5.9,15.5,15.5,15.5c9.6,0,15.3-5.7,15.3-15.5
		V25.5h5.8V37.1z"/>
	<path d="M64.7,47v10.9h-5.6V4.4h5.6v34.9l19.5-19.4h6.6L76.7,34.6l15.7,23.3h-6.7l-13-19.2L64.7,47z"/>
	<path d="M139.9,19.6v38.3H135v-6.6c-2.1,2.5-4.4,4.4-6.9,5.7s-5.4,1.9-8.4,1.9c-5.4,0-10-2-13.9-5.9c-3.8-3.9-5.7-8.7-5.7-14.3
		c0-5.5,1.9-10.2,5.8-14.1c3.9-3.9,8.5-5.9,14-5.9c3.1,0,6,0.7,8.5,2c2.5,1.3,4.8,3.3,6.7,6v-7H139.9z M120.2,23.3
		c-2.7,0-5.3,0.7-7.6,2c-2.3,1.3-4.2,3.2-5.5,5.7c-1.4,2.4-2.1,5-2.1,7.7c0,2.7,0.7,5.3,2.1,7.7c1.4,2.5,3.2,4.4,5.6,5.7
		c2.3,1.4,4.8,2.1,7.5,2.1c2.7,0,5.2-0.7,7.7-2c2.4-1.4,4.3-3.2,5.6-5.5s1.9-4.9,1.9-7.8c0-4.4-1.5-8.1-4.4-11.1
		C128,24.8,124.4,23.3,120.2,23.3z"/>
	<path d="M190.1,34.4v23.4h-5.6V35.9c0-6.7-4-10.7-10.7-10.7c-7.5,0.1-12.1,5-12.7,12.2v20.4h-5.6V19.9h5.6v8.4
		c2.7-5.8,7.8-8.5,14.7-8.6C184.8,19.7,190.1,25.3,190.1,34.4z"/>
	<path d="M240.6,57.8h-5.6v-8.1c-2.8,5.3-8,8.4-14.8,8.4c-10.8,0-18.3-8-18.3-19.3c0-11.4,7.5-19.2,18.2-19.2c6.8,0,12,3.1,14.8,8.5
		V4.4h5.6V57.8z M234.9,39c0-8.3-5.7-14.3-13.7-14.3c-8.1,0-13.8,6-13.8,14.3c0,8.2,5.7,14.1,13.8,14.1
		C229.3,53.1,234.9,47.2,234.9,39z"/>
	<path d="M292.3,38.8c0,11.4-8,19.2-19.2,19.2c-11.2,0-19.2-7.8-19.2-19.2c0-11.3,8-19.1,19.2-19.1
		C284.3,19.7,292.3,27.5,292.3,38.8z M259.5,38.9c0,8.4,5.7,14.1,13.6,14.1s13.6-5.8,13.6-14.1c0-8.3-5.7-14-13.6-14
		S259.5,30.6,259.5,38.9z"/>
	<path d="M309.1,11.1c0,1.2-0.4,2.1-1.1,3.1l-3.4,5.2h-3.2l2.4-5.3c-1.1-0.6-1.6-1.8-1.6-3c0-2.2,1.4-3.7,3.4-3.7
		C307.5,7.4,309.1,8.9,309.1,11.1z"/>
	<path d="M387.8,55.2c-2.7,1.8-5.5,2.8-8.6,2.9c-5.5,0-9.6-3.3-9.6-10.8V25.6h-5.5v-4.5h5.5v-10h5.5v10l12-0.1v4.6h-12v20.7
		c0,4.6,1.8,6.3,5,6.3c1.9,0,4-0.6,6-1.9L387.8,55.2z"/>
</g>
<g>
	<line fill="none" stroke="#D62027" stroke-width="3" stroke-miterlimit="10" x1="342.8" y1="13.2" x2="329.6" y2="49.4"/>
	<g>
		<line fill="#ED1C24" x1="329.6" y1="49.4" x2="311" y2="40.6"/>
		<g>
			<path fill="#D62027" d="M330.3,48.1c-6.2-2.9-12.3-5.9-18.5-8.8c-1.7-0.8-3.3,1.8-1.5,2.6c6.2,2.9,12.3,5.9,18.5,8.8
				C330.5,51.6,332.1,49,330.3,48.1L330.3,48.1z"/>
		</g>
	</g>
	<g>
		<g>
			<path fill="#D62027" d="M334.9,33.6c2.2,4.1,4.4,8.1,6.6,12.2c0.9,1.7,3.5,0.2,2.6-1.5c-2.2-4.1-4.4-8.1-6.6-12.2
				C336.6,30.4,334,31.9,334.9,33.6L334.9,33.6z"/>
		</g>
	</g>
	<g>
		<g>
			<path fill="#D62027" d="M341.3,45c0,4.9,0,9.8,0,14.7c0,1.9,3,1.9,3,0c0-4.9,0-9.8,0-14.7C344.3,43.1,341.3,43.1,341.3,45
				L341.3,45z"/>
		</g>
	</g>
	<g>
		<g>
			<path fill="#D62027" d="M342.4,11.8c-3.9,1.2-7.7,2.4-11.6,3.6c-1.8,0.6-1.1,3.5,0.8,2.9c3.9-1.2,7.7-2.4,11.6-3.6
				C345.1,14.1,344.3,11.2,342.4,11.8L342.4,11.8z"/>
		</g>
	</g>
	<g>
		<g>
			<path fill="#D62027" d="M329.7,16.8c0,2.6,0,5.2,0,7.7c0,1.9,3,1.9,3,0c0-2.6,0-5.2,0-7.7C332.7,14.9,329.7,14.9,329.7,16.8
				L329.7,16.8z"/>
		</g>
	</g>
	<line fill="none" stroke="#D62027" stroke-width="3" stroke-miterlimit="10" x1="342.8" y1="13.2" x2="347" y2="22.9"/>
	<g>
		<g>
			<path fill="#D62027" d="M346.3,24.2c2.1,0.9,4.1,1.8,6.2,2.6c1.8,0.8,3.3-1.8,1.5-2.6c-2.1-0.9-4.1-1.8-6.2-2.6
				C346,20.9,344.5,23.4,346.3,24.2L346.3,24.2z"/>
		</g>
	</g>
	<circle fill="none" stroke="#D62027" stroke-width="3" stroke-miterlimit="10" cx="346.3" cy="6.6" r="5.1"/>
</g>
<line fill="none" stroke="#000000" stroke-width="5" stroke-miterlimit="10" x1="237.5" y1="6.9" x2="99.1" y2="6.9"/>
<line fill="none" stroke="#000000" stroke-width="5" stroke-miterlimit="10" x1="64.2" y1="43.8" x2="100.9" y2="6.2"/>
<g>
	<g>
		<path d="M30.9,15.9c5.8,0,5.8-9,0-9C25.1,6.9,25.1,15.9,30.9,15.9L30.9,15.9z"/>
	</g>
</g>
<g>
	<g>
		<path d="M10.4,15.9c5.8,0,5.8-9,0-9C4.6,6.9,4.6,15.9,10.4,15.9L10.4,15.9z"/>
	</g>
</g>
</svg>
